PathFileType	4	(X/Y/Z)	Patient4_TMGait_0pt4_01_left_16.trc.trc
DataRate	CameraRate	NumFrames	NumMarkers	Units	OrigDataRate	OrigDataStartFrame	OrigNumFrames
93.959731543624	93.959731543624	4	33	mm	93.959731543624	53	       141
Frame#	Time	Sacral			L.Shoulder			Chest			R.Shoulder			Neck			R.ASIS			L.ASIS			R.Thigh.Superior			R.Thigh.Lateral			R.Thigh.Inferior			R.Patella			L.Thigh.Superior			L.Thigh.Lateral			L.Thigh.Inferior			L.Patella			L.Shank.Superior			L.Shank.Lateral			L.Shank.Inferior			R.Shank.Superior			R.Shank.Lateral			R.Shank.Inferior			R.Heel			R.Midfoot.Superior			R.Midfoot.Lateral			R.Toe			L.Heel			L.Midfoot.Lateral			L.Midfoot.Superior			L.Toe			L.Elbow			L.Wrist			R.Elbow			R.Wrist			
		X1	Y1	Z1	X2	Y2	Z2	X3	Y3	Z3	X4	Y4	Z4	X5	Y5	Z5	X6	Y6	Z6	X7	Y7	Z7	X8	Y8	Z8	X9	Y9	Z9	X10	Y10	Z10	X11	Y11	Z11	X12	Y12	Z12	X13	Y13	Z13	X14	Y14	Z14	X15	Y15	Z15	X16	Y16	Z16	X17	Y17	Z17	X18	Y18	Z18	X19	Y19	Z19	X20	Y20	Z20	X21	Y21	Z21	X22	Y22	Z22	X23	Y23	Z23	X24	Y24	Z24	X25	Y25	Z25	X26	Y26	Z26	X27	Y27	Z27	X28	Y28	Z28	X29	Y29	Z29	X30	Y30	Z30	X31	Y31	Z31	X32	Y32	Z32	X33	Y33	Z33	

53	20.553428571429	743.463182855140	1011.846558587041	400.789498903749	896.953559276361	1435.456103363436	190.722088166340	1025.226752068726	1368.849836822630	333.358514868463	972.022377571123	1445.566535762192	518.521544185683	904.951706248431	1498.305065101322	356.090996138095	984.026560303591	942.485228329558	485.812267325398	933.242748987592	963.600341974400	216.079205794370	1025.202893729085	743.260515975554	465.735319245244	955.898676396609	634.104362432547	544.353425830814	1032.934847124027	574.932635451610	465.909974138027	1027.697538135346	466.943856356110	490.855836192253	986.667471805059	755.752168616828	230.827254721758	893.781836854140	638.140015665603	184.519486565638	991.553833404318	563.567168351739	228.598236308517	995.281802122234	493.813730029724	235.503493285264	968.233317216189	420.643891609799	233.882961699428	872.178026900882	304.439742072290	199.745290424806	938.394473684019	194.949683396843	262.505481741922	951.417679827250	399.986872838375	501.518645251275	833.838187655284	359.659327592332	568.002309217824	821.157162855666	248.872070938898	520.895983823811	619.648186325429	171.860127175295	501.477307635312	795.703929924271	135.279479169457	539.670385899754	687.223153823216	121.921113192939	574.770310632645	872.969341928999	33.525159126135	566.400839983574	820.348407897762	37.958825972375	323.053576128065	885.822652277313	34.390869294067	235.067135241318	971.152023178075	96.327737825917	251.854973533912	1096.658308032053	45.112133375886	213.584228196961	852.747369380668	1093.697800151575	54.571987907018	962.693194066360	866.201298781209	-12.957561930158	959.573445419538	1102.589631882589	650.813286599692	1079.350861748532	871.244276023593	636.166748310736	
54	20.564071428571	742.273778830711	1011.735464620499	399.294415619901	897.108466580513	1435.095300980689	188.763465465568	1024.297569748885	1368.949012541649	332.545458052579	969.695090752666	1446.030327166026	517.131081022549	904.132797888777	1498.461610587330	354.000728720821	982.573226486903	942.878123584126	485.293637717803	932.717751387519	963.960471442646	215.352866212312	1027.810341104648	745.889691612995	464.542828451609	961.148257230920	635.286081730671	543.107705500569	1039.569347743963	577.593265418300	464.642688786992	1035.901341063439	468.735864441785	489.607123021740	984.723835712206	755.308305299157	229.834691265672	890.872583582398	638.326992281862	183.913162115335	988.045109344476	563.136155572454	228.008004865346	991.215955075693	493.528236662714	235.068069083805	964.182420676087	420.551955046630	233.445485050130	867.951346739814	304.449563115057	199.488860146808	934.185963572729	194.935410511780	262.245729827610	958.710475783176	401.717018366304	500.061613658363	840.249030453846	363.461916471316	566.313574624735	825.580847891037	253.003151971817	519.448990715082	622.973033355526	180.415334164754	499.909269302055	798.118774425813	139.665343670656	538.352015485754	689.242332912974	128.751002587231	573.208899823989	872.795728675831	34.678348920894	564.884835906868	816.073441657300	37.958065643503	322.985228586397	881.546770184007	34.376330678063	234.998140783484	966.858062325897	96.320017092568	251.750741066482	1092.369567431050	45.145966489749	213.507260086091	858.224243969523	1093.973478173696	49.894578572747	974.512049248533	870.194851741537	-19.490438305200	951.345135295841	1103.487212586139	649.837166360214	1062.604292766061	867.587155381587	638.232584650395	
55	20.574714285714	741.092412169445	1011.632859571947	397.969956614705	897.201560836617	1434.690582684743	186.938233896903	1023.330530388177	1369.062618492217	331.855888993302	967.342349736712	1446.528746245490	515.845647993465	903.315174048873	1498.612465341004	352.027517030028	981.072918788777	943.263338999942	484.884633809271	932.193425777959	964.328737826229	214.782423383051	1030.150494150239	748.573649726084	463.348201076535	966.178098203064	636.615062316697	541.916090398042	1045.783283249116	580.424988774915	463.301433157232	1043.793726375363	470.772690089668	488.231560782015	982.833633424028	754.860938128984	229.078910309589	888.027099012834	638.506337036275	183.484398706267	984.589428169216	562.690846825423	227.666121275672	987.208889351367	493.242787793966	234.903094384558	960.204264739459	420.467160527045	233.232927179910	863.839232340361	304.475041450102	199.329089852046	930.020800466247	194.913446115673	262.102958245881	965.860214394114	403.602415669085	498.535164443916	846.693431765186	367.070234981385	564.601054900640	830.299084416035	256.976424526357	517.900098780851	626.846524860344	188.195474371913	498.325287576980	801.133955289496	143.837443159065	536.809654086553	692.000215335985	134.999041679789	571.524507974267	873.522739173535	36.176931080398	562.989596282857	811.799192797060	37.957856339375	322.925391882047	877.272288659230	34.372805167112	234.942883261591	962.571027388408	96.307466195734	251.685398048932	1088.081227307039	45.161080369206	213.435354993884	863.674780237503	1094.267147441285	45.502263529941	986.175377734007	874.394617343237	-25.675494559142	942.964765929030	1104.546870112174	648.942488394248	1045.831989593061	864.607955163434	640.130114276965	
56	20.585357142857	739.920890870786	1011.553411756466	396.792227890369	897.251320716531	1434.266612100301	185.249739769524	1022.342296283345	1369.202633492071	331.289011069005	964.982930177229	1447.068319919009	514.666586996971	902.506064867874	1498.766432922066	350.183609977590	979.525670091354	943.654848002830	484.576784403303	931.686655811828	964.707006423052	214.350232844934	1032.203465679752	751.297300986711	462.167278957428	970.964673774269	638.081873516767	540.789786575023	1051.558304048256	583.408246438584	461.894576536400	1051.354800168746	473.037931291290	486.746485499655	981.015246722955	754.404306018331	228.547143332351	885.261448295144	638.678303225967	183.221798280027	981.190142114602	562.227171286769	227.579500953371	983.262119171293	492.958412541971	235.013708114684	956.303917981996	420.389777807880	233.245895019828	859.855106030783	304.512181035072	199.254157385968	925.903313305577	194.883485063323	262.079164377599	972.847109048365	405.626636082667	496.950835316340	853.151689711797	370.432380003310	562.880116712918	835.330237529329	260.711195533195	516.260208028513	631.269687156708	195.062869847096	496.725758147581	804.790457599091	147.688649133329	535.068463193492	695.512780857695	140.540025676854	569.733434179007	875.240862224549	37.934882210917	560.776565374611	807.523817056338	37.958348484480	322.873387914517	872.998352108978	34.379495850425	234.900251144170	958.291518699482	96.288920531360	251.659144128278	1083.794393378468	45.154625131882	213.370039280433	869.042572629544	1094.594163300357	41.424197316899	997.630814029049	878.810552181244	-31.486043672080	934.478007623004	1105.787631703887	648.140633574402	1029.139644942854	862.299457133724	641.847940036000	
